<svg width="24" height="24" viewBox="0 0 24 24" fill="none" xmlns="http://www.w3.org/2000/svg">
<path d="M15.4702 2C13.7219 2 12.252 3.26638 11.8262 4.98361C11.4003 3.26638 9.93058 2 8.18218 2C6.10075 2 4.41342 3.79458 4.41342 6.00835C4.41342 8.22212 6.71043 10.2034 8.18218 11.7688C10.0167 13.7199 11.8262 15.4851 11.8262 15.4851C11.8262 15.4851 13.7355 13.6137 15.4702 11.7688C16.942 10.2034 19.2389 8.22212 19.2389 6.00835C19.2389 3.79458 17.5516 2 15.4702 2Z" fill="#F06060"/>
<path d="M7.55879 6.91359C7.55879 6.75973 7.67286 6.63501 7.81363 6.63501H8.82381C8.96453 6.63501 9.07865 6.75973 9.07865 6.91359V7.20628C9.07865 7.27157 9.03023 7.3245 8.97049 7.3245C8.91076 7.3245 8.86234 7.27157 8.86234 7.20628V7.11916C8.86234 7.00575 8.77825 6.91382 8.67453 6.91382H8.65047C8.5334 6.91382 8.43854 7.01754 8.43854 7.14547V8.81786C8.43854 8.91492 8.51051 8.99359 8.5993 8.99359H8.63253C8.70297 8.99359 8.76005 9.05599 8.76005 9.13299C8.76005 9.20999 8.70297 9.27239 8.63253 9.27239H8.00195C7.93152 9.27239 7.87443 9.20999 7.87443 9.13299C7.87443 9.05599 7.93152 8.99359 8.00195 8.99359H8.03519C8.12397 8.99359 8.19594 8.91492 8.19594 8.81786V7.14387C8.19594 7.01682 8.10175 6.91382 7.98549 6.91382H7.96291C7.85914 6.91382 7.77505 7.00575 7.77505 7.11916V7.20628C7.77505 7.27157 7.72663 7.3245 7.66689 7.3245C7.60721 7.3245 7.55879 7.27157 7.55879 7.20628V6.91359Z" fill="#F2EBBF"/>
<path d="M10.5073 8.74281C10.4758 8.62357 10.376 8.5415 10.2625 8.5415H9.86126C9.74694 8.5415 9.64663 8.62469 9.61585 8.74498L9.50438 9.18046C9.49047 9.23484 9.44516 9.27239 9.39353 9.27239C9.31713 9.27239 9.26188 9.19255 9.28272 9.11221L9.88603 6.78581C9.90917 6.69659 9.98368 6.63501 10.0685 6.63501C10.1532 6.63501 10.2276 6.69636 10.2509 6.78536L10.8568 9.1019C10.8791 9.18731 10.8204 9.27239 10.7391 9.27239C10.6846 9.27239 10.6367 9.233 10.6215 9.17573L10.5073 8.74281ZM9.82813 7.93007C9.78567 8.10151 9.90377 8.27022 10.0663 8.27022C10.2282 8.27022 10.3462 8.10245 10.3046 7.93135L10.0904 7.04919C10.0878 7.03824 10.0787 7.03062 10.0683 7.03062C10.058 7.03062 10.0489 7.03818 10.0463 7.04908L9.82813 7.93007Z" fill="#F2EBBF"/>
<path d="M12.2827 7.52042L12.3111 7.17257C12.3116 7.16715 12.3077 7.16249 12.3027 7.16249C12.2995 7.16249 12.2964 7.16455 12.2951 7.16778L12.1571 7.48652L11.8756 8.09482C11.8654 8.11688 11.8447 8.13081 11.822 8.13081C11.7998 8.13081 11.7793 8.11733 11.769 8.09582L11.4731 7.48274L11.3409 7.16779C11.3395 7.16456 11.3366 7.16249 11.3333 7.16249C11.3284 7.16249 11.3245 7.16719 11.3251 7.17257L11.3591 7.51665V9.14302C11.3591 9.21445 11.3061 9.27239 11.2408 9.27239C11.1754 9.27239 11.1224 9.21445 11.1224 9.14302V6.78857C11.1224 6.70376 11.1852 6.63501 11.2628 6.63501C11.3149 6.63501 11.3627 6.66646 11.387 6.71674L11.8313 7.63443L11.8355 7.63722L11.8398 7.63438L12.2683 6.71609C12.2915 6.66633 12.3383 6.63501 12.3894 6.63501C12.4645 6.63501 12.5253 6.70154 12.5253 6.78363V9.13979C12.5253 9.21306 12.471 9.27239 12.404 9.27239C12.337 9.27239 12.2827 9.21306 12.2827 9.13979V7.52042Z" fill="#F2EBBF"/>
<path d="M12.9919 6.87275C12.9919 6.74776 13.068 6.63572 13.1816 6.62143C13.198 6.61936 13.2146 6.61758 13.2315 6.6161C13.3173 6.60857 13.402 6.60479 13.4858 6.60479C13.5754 6.60479 13.6661 6.6161 13.7576 6.6387C13.8512 6.66131 13.9359 6.70275 14.0119 6.76304C14.0879 6.82333 14.1493 6.90622 14.1961 7.01171C14.2448 7.1172 14.2692 7.25159 14.2692 7.41486C14.2692 7.57564 14.2467 7.71125 14.2019 7.82179C14.1571 7.93228 14.0977 8.02271 14.0236 8.09302C13.9496 8.16089 13.8648 8.20986 13.7693 8.24C13.6739 8.27015 13.5754 8.28519 13.4741 8.28519C13.4644 8.28519 13.4478 8.28519 13.4244 8.28519C13.403 8.28519 13.3796 8.28519 13.3543 8.28519C13.3309 8.28268 13.3075 8.28018 13.2842 8.27767C13.2586 8.27494 13.2345 8.297 13.2345 8.32497V9.13972C13.2345 9.21299 13.1801 9.27232 13.1132 9.27232C13.0461 9.27232 12.9919 9.21299 12.9919 9.13972V6.87275ZM13.4916 6.87607C13.441 6.87607 13.3923 6.87733 13.3455 6.87984C13.2782 6.88346 13.2345 6.94827 13.2345 7.02191V7.93874C13.2345 7.97084 13.252 7.9992 13.2812 8.00259C13.3027 8.00259 13.325 8.00388 13.3484 8.00638C13.3718 8.00638 13.3942 8.00638 13.4157 8.00638C13.4371 8.00638 13.4527 8.00638 13.4624 8.00638C13.5287 8.00638 13.5939 7.99886 13.6583 7.98376C13.7245 7.96621 13.7839 7.93607 13.8365 7.89333C13.8891 7.85065 13.931 7.79037 13.9622 7.71253C13.9954 7.63464 14.0119 7.53542 14.0119 7.41486C14.0119 7.31187 13.9963 7.22647 13.9651 7.15865C13.9359 7.08832 13.896 7.03306 13.8453 6.99287C13.7966 6.95017 13.7411 6.92003 13.6787 6.90244C13.6164 6.88487 13.554 6.87607 13.4916 6.87607Z" fill="#F2EBBF"/>
<path d="M15.765 8.74281C15.7336 8.62357 15.6337 8.5415 15.5202 8.5415H15.1189C15.0047 8.5415 14.9044 8.62469 14.8735 8.74498L14.7621 9.18046C14.7482 9.23484 14.7028 9.27239 14.6512 9.27239C14.5748 9.27239 14.5196 9.19255 14.5405 9.11221L15.1438 6.78581C15.1669 6.69659 15.2414 6.63501 15.3262 6.63501C15.4109 6.63501 15.4854 6.69636 15.5086 6.78536L16.1145 9.1019C16.1368 9.18731 16.0782 9.27239 15.9968 9.27239C15.9423 9.27239 15.8944 9.233 15.8793 9.17573L15.765 8.74281ZM15.0858 7.93007C15.0434 8.10151 15.1615 8.27022 15.3239 8.27022C15.4859 8.27022 15.6039 8.10245 15.5624 7.93135L15.3481 7.04919C15.3454 7.03824 15.3364 7.03062 15.326 7.03062C15.3157 7.03062 15.3067 7.03818 15.304 7.04908L15.0858 7.93007Z" fill="#F2EBBF"/>
<path d="M16.6073 10.5247C16.5477 10.5857 16.4885 10.6462 16.4299 10.7061L16.4234 10.7128L16.4202 10.7161C16.1921 10.9493 15.9765 11.1698 15.7765 11.3824C14.0891 13.1769 12.2102 15.0202 12.1915 15.0386C12.0828 15.145 11.945 15.1983 11.807 15.1983C11.6694 15.1983 11.5319 15.1454 11.4234 15.0395L11.4218 15.038C11.3559 14.9734 9.59689 13.2536 7.83748 11.3824C7.63657 11.1687 7.41995 10.9472 7.19065 10.7128C7.12995 10.6508 7.06863 10.588 7.00681 10.5247L9.83032 14.7259L9.83267 14.7294L9.83588 14.7343L9.83883 14.739L9.84169 14.7436C10.0764 15.1272 10.2928 15.5352 10.4847 15.9565C10.4937 15.9762 10.5017 15.9966 10.5085 16.0176L11.6771 19.629C11.7098 19.7304 11.7374 19.8339 11.759 19.9365C11.7902 20.0842 11.8061 20.2356 11.8071 20.3865C11.808 20.2356 11.8238 20.0842 11.855 19.9364C11.8767 19.8339 11.9043 19.7304 11.9369 19.629L13.1056 16.0176C13.1124 15.9966 13.1203 15.9762 13.1293 15.9565C13.3213 15.5352 13.5376 15.1272 13.7724 14.7436C13.7761 14.7376 13.7799 14.7316 13.7837 14.7259L16.6073 10.5247Z" fill="#8CBEB2"/>
<path d="M20.9836 9.82359C20.6943 11.0268 20.2209 12.1419 19.592 13.102L16.2898 18.1426C16.0831 18.4316 15.913 18.7614 15.7858 19.1197L15.1145 21.0103C14.889 21.6454 14.3351 21.7626 13.8107 21.6425L12.9666 21.4492C12.4168 21.3233 12.0637 20.6119 12.2112 19.9126C12.2278 19.8338 12.249 19.7543 12.2747 19.6746L13.404 16.1847C13.5816 15.7951 13.7796 15.4217 13.9965 15.0674L17.3817 10.0305C17.7051 9.47123 18.3165 9.35841 18.7471 9.77846C18.8238 9.85334 18.8896 9.94009 18.9441 10.0353L20.3272 4.05606C20.4822 3.3862 21.0259 3.00627 21.5418 3.2075C22.0575 3.40874 22.3501 4.11486 22.1952 4.78473L20.9836 9.82359Z" fill="#F2EBBF"/>
<path d="M21.6494 2.74279C20.9375 2.46507 20.1835 2.99132 19.9695 3.91639L18.7448 9.21131C18.1812 8.86013 17.486 9.0577 17.092 9.72374L13.7151 14.7483C13.7114 14.7539 13.7077 14.7596 13.7041 14.7654C13.4773 15.1361 13.2682 15.5305 13.0826 15.9377C13.074 15.9567 13.0663 15.9764 13.0597 15.9968L11.9301 19.4872C11.8985 19.5852 11.8719 19.6853 11.851 19.7844C11.7535 20.2462 11.8112 20.7439 12.0091 21.1501C12.2088 21.5597 12.5342 21.8429 12.9018 21.9271L13.7459 22.1204C14.5485 22.3042 15.187 21.9652 15.4539 21.2134L16.1251 19.3229C16.2361 19.0106 16.3836 18.7246 16.5637 18.4728C16.5674 18.4676 16.571 18.4624 16.5745 18.457L19.8767 13.4164C20.5419 12.401 21.0344 11.2409 21.3404 9.96828L22.552 4.92938C22.7659 4.00429 22.3617 3.02059 21.6494 2.74279ZM21.838 4.64292L20.6271 9.67895C20.3512 10.8263 19.9072 11.8721 19.3075 12.7876L16.0104 17.8204C15.7791 18.1456 15.5894 18.5142 15.4466 18.9165L14.7754 20.8071C14.6143 21.2606 14.1426 21.2259 13.8757 21.1647L13.0316 20.9714C12.8682 20.934 12.7293 20.8131 12.6406 20.631C12.5535 20.4525 12.5291 20.243 12.5717 20.0409C12.5842 19.9819 12.6003 19.9217 12.6193 19.8626L13.7386 16.4038C13.9021 16.0478 14.0854 15.7029 14.2838 15.3779L17.6633 10.3496C17.6693 10.3406 17.6751 10.3314 17.6806 10.3219C17.8797 9.97759 18.2573 9.90766 18.5226 10.1662C18.7652 10.419 18.8206 10.8716 18.6465 11.2089C18.6426 11.2164 18.6386 11.2239 18.6345 11.2313L17.2877 13.2369C17.152 13.4389 17.1682 13.7454 17.3237 13.9216C17.3768 13.9817 17.4393 14.0189 17.504 14.0337C17.6287 14.0623 17.7615 14.0078 17.8508 13.8748L19.2076 11.8543C19.2135 11.8455 19.2192 11.8364 19.2246 11.8272C19.2394 11.8016 19.2536 11.7758 19.2671 11.7495C19.548 11.2053 19.5632 10.5272 19.3476 9.97831L20.6852 4.19574C20.7806 3.78317 21.1166 3.54829 21.4344 3.6723C21.7515 3.79586 21.9323 4.23097 21.838 4.64292Z" fill="#5C4B51"/>
<path d="M2.62554 9.82359C2.91485 11.0268 3.38819 12.1419 4.01716 13.102L7.31929 18.1426C7.52607 18.4317 7.69615 18.7614 7.82331 19.1197L8.49461 21.0103C8.72014 21.6454 9.27406 21.7626 9.79842 21.6425L10.6425 21.4492C11.1924 21.3233 11.5455 20.6119 11.3979 19.9126C11.3813 19.8339 11.3601 19.7543 11.3344 19.6746L10.2051 16.1848C10.0275 15.7951 9.82961 15.4217 9.61264 15.0674L6.22741 10.0305C5.90397 9.47123 5.29267 9.35841 4.86204 9.77846C4.78527 9.85334 4.71953 9.94015 4.665 10.0353L3.28191 4.05606C3.12689 3.3862 2.58322 3.00627 2.06739 3.2075C1.55156 3.40874 1.25904 4.11487 1.41397 4.78473L2.62554 9.82359Z" fill="#F2EBBF"/>
<path d="M1.95976 2.74279C2.67169 2.46507 3.42568 2.99132 3.63968 3.91639L4.86445 9.21137C5.42799 8.86019 6.12318 9.0577 6.51721 9.72374L9.89413 14.7483C9.89785 14.7539 9.90152 14.7596 9.90509 14.7654C10.132 15.1362 10.3411 15.5305 10.5266 15.9377C10.5353 15.9567 10.543 15.9764 10.5496 15.9968L11.6791 19.4872C11.7107 19.5852 11.7373 19.6853 11.7582 19.7844C11.8557 20.2462 11.7981 20.744 11.6001 21.1501C11.4004 21.5597 11.0751 21.8429 10.7074 21.9271L9.8633 22.1204C9.06076 22.3042 8.42224 21.9652 8.15532 21.2134L7.48407 19.3229C7.37317 19.0106 7.22566 18.7246 7.04549 18.4728C7.04182 18.4677 7.0382 18.4624 7.03469 18.457L3.7325 13.4164C3.06732 12.4011 2.57484 11.241 2.26886 9.96828L1.05725 4.92938C0.843329 4.00429 1.24749 3.02059 1.95976 2.74279ZM1.7712 4.64292L2.98212 9.67895C3.25802 10.8263 3.70201 11.8722 4.30166 12.7876L7.5988 17.8204C7.83014 18.1456 8.01979 18.5142 8.1626 18.9165L8.8339 20.8071C8.99496 21.2606 9.46672 21.2259 9.73353 21.1647L10.5777 20.9714C10.7411 20.934 10.8799 20.8132 10.9686 20.631C11.0557 20.4525 11.0802 20.243 11.0375 20.0409C11.0251 19.9819 11.009 19.9217 10.9899 19.8626L9.87059 16.4038C9.70713 16.0479 9.5238 15.7029 9.32538 15.378L5.94591 10.3496C5.93993 10.3406 5.93414 10.3314 5.92865 10.3219C5.72952 9.97764 5.35192 9.90772 5.08664 10.1662C4.84405 10.419 4.78857 10.8716 4.96272 11.2089C4.96661 11.2164 4.97058 11.2239 4.97471 11.2313L6.32155 13.237C6.45717 13.4389 6.44107 13.7454 6.28556 13.9216C6.2324 13.9818 6.16992 14.0189 6.10524 14.0337C5.98049 14.0623 5.84769 14.0078 5.75843 13.8749L4.40156 11.8543C4.3957 11.8455 4.38999 11.8365 4.38459 11.8272C4.36983 11.8017 4.35569 11.7758 4.3421 11.7495C4.06115 11.2054 4.04602 10.5272 4.26162 9.97837L2.92403 4.19574C2.82864 3.78317 2.49264 3.54829 2.17484 3.67229C1.85768 3.79586 1.67691 4.23097 1.7712 4.64292Z" fill="#5C4B51"/>
</svg>
