<svg width="139" height="48" viewBox="0 0 139 48" fill="none" xmlns="http://www.w3.org/2000/svg">
<path d="M34.4366 0C30.2759 3.52442e-09 26.7779 3.01376 25.7645 7.1005C24.7511 3.01376 21.2533 1.11673e-08 17.0924 1.46918e-08C12.1389 1.88878e-08 8.12338 4.27081 8.12338 9.53921C8.12338 14.8076 13.5899 19.5226 17.0924 23.2481C21.4582 27.8913 25.7645 32.0924 25.7645 32.0924C25.7645 32.0924 30.3084 27.6386 34.4366 23.2481C37.9393 19.5226 43.4056 14.8076 43.4056 9.53921C43.4056 4.27081 39.3901 -4.19602e-09 34.4366 0Z" fill="#F06060"/>
<path d="M15.6088 11.6935C15.6088 11.3274 15.8803 11.0305 16.2153 11.0305H18.6194C18.9543 11.0305 19.2258 11.3274 19.2258 11.6935V12.3901C19.2258 12.5455 19.1106 12.6714 18.9685 12.6714C18.8263 12.6714 18.7111 12.5455 18.7111 12.3901V12.1827C18.7111 11.9129 18.5109 11.6941 18.2641 11.6941H18.2068C17.9282 11.6941 17.7025 11.9409 17.7025 12.2454V16.2254C17.7025 16.4563 17.8738 16.6436 18.0851 16.6436H18.1641C18.3318 16.6436 18.4676 16.7921 18.4676 16.9753C18.4676 17.1586 18.3318 17.3071 18.1641 17.3071H16.6635C16.4959 17.3071 16.36 17.1586 16.36 16.9753C16.36 16.7921 16.4959 16.6436 16.6635 16.6436H16.7426C16.9539 16.6436 17.1251 16.4563 17.1251 16.2254V12.2416C17.1251 11.9392 16.901 11.6941 16.6243 11.6941H16.5706C16.3236 11.6941 16.1235 11.9129 16.1235 12.1827V12.3901C16.1235 12.5455 16.0083 12.6714 15.8661 12.6714C15.7241 12.6714 15.6088 12.5455 15.6088 12.3901V11.6935Z" fill="#F2EBBF"/>
<path d="M22.6259 16.0468C22.5509 15.763 22.3133 15.5677 22.0432 15.5677H21.0883C20.8163 15.5677 20.5775 15.7657 20.5043 16.0519L20.239 17.0883C20.2059 17.2177 20.0981 17.3071 19.9752 17.3071C19.7934 17.3071 19.6619 17.1171 19.7115 16.9259L21.1473 11.3894C21.2023 11.1771 21.3797 11.0305 21.5816 11.0305C21.7831 11.0305 21.9602 11.1766 22.0156 11.3884L23.4575 16.9013C23.5107 17.1046 23.371 17.3071 23.1775 17.3071C23.0477 17.3071 22.9337 17.2133 22.8977 17.077L22.6259 16.0468ZM21.0095 14.1126C20.9084 14.5206 21.1895 14.9221 21.5762 14.9221C21.9615 14.9221 22.2424 14.5228 22.1435 14.1156L21.6337 12.0162C21.6274 11.9902 21.6058 11.972 21.581 11.972C21.5565 11.972 21.5349 11.99 21.5286 12.016L21.0095 14.1126Z" fill="#F2EBBF"/>
<path d="M26.851 13.1377L26.9186 12.3099C26.9197 12.297 26.9104 12.2859 26.8986 12.2859C26.8908 12.2859 26.8837 12.2908 26.8804 12.2985L26.5519 13.057L25.882 14.5047C25.8578 14.5572 25.8085 14.5903 25.7547 14.5903C25.7017 14.5903 25.653 14.5582 25.6284 14.507L24.9243 13.048L24.6096 12.2985C24.6064 12.2908 24.5993 12.2859 24.5916 12.2859C24.5798 12.2859 24.5706 12.297 24.5719 12.3099L24.6529 13.1287V16.9992C24.6529 17.1692 24.5268 17.3071 24.3713 17.3071C24.2157 17.3071 24.0895 17.1692 24.0895 16.9992V11.396C24.0895 11.1942 24.2392 11.0305 24.4238 11.0305C24.5476 11.0305 24.6614 11.1054 24.7193 11.225L25.7766 13.409L25.7867 13.4156L25.7969 13.4089L26.8166 11.2235C26.8719 11.1051 26.9833 11.0305 27.1048 11.0305C27.2836 11.0305 27.4284 11.1889 27.4284 11.3842V16.9915C27.4284 17.1659 27.2991 17.3071 27.1397 17.3071C26.9802 17.3071 26.851 17.1659 26.851 16.9915V13.1377Z" fill="#F2EBBF"/>
<path d="M28.5386 11.5963C28.5386 11.2989 28.7198 11.0322 28.9902 10.9982C29.0293 10.9933 29.0688 10.9891 29.1089 10.9855C29.3131 10.9676 29.5148 10.9586 29.7142 10.9586C29.9274 10.9586 30.1431 10.9855 30.3611 11.0393C30.5836 11.0931 30.7854 11.1918 30.9662 11.3352C31.1471 11.4787 31.2931 11.676 31.4045 11.927C31.5204 12.1781 31.5784 12.4979 31.5784 12.8865C31.5784 13.2691 31.525 13.5918 31.4184 13.8549C31.3117 14.1178 31.1702 14.333 30.994 14.5004C30.8179 14.6619 30.6162 14.7784 30.3888 14.8502C30.1617 14.9219 29.9274 14.9577 29.6863 14.9577C29.6631 14.9577 29.6237 14.9577 29.568 14.9577C29.5171 14.9577 29.4614 14.9577 29.4011 14.9577C29.3455 14.9517 29.2898 14.9458 29.2342 14.9398C29.1735 14.9333 29.116 14.9858 29.116 15.0524V16.9913C29.116 17.1657 28.9867 17.3069 28.8273 17.3069C28.6678 17.3069 28.5386 17.1657 28.5386 16.9913V11.5963ZM29.728 11.6042C29.6075 11.6042 29.4915 11.6072 29.3803 11.6132C29.2202 11.6218 29.116 11.7761 29.116 11.9513V14.1332C29.116 14.2096 29.1578 14.2771 29.2272 14.2852C29.2783 14.2852 29.3315 14.2882 29.3872 14.2942C29.4429 14.2942 29.4962 14.2942 29.5472 14.2942C29.5983 14.2942 29.6354 14.2942 29.6585 14.2942C29.8162 14.2942 29.9715 14.2763 30.1245 14.2404C30.2822 14.1986 30.4237 14.1269 30.5488 14.0252C30.674 13.9236 30.7737 13.7801 30.848 13.5949C30.9268 13.4095 30.9662 13.1734 30.9662 12.8865C30.9662 12.6414 30.9291 12.4381 30.8549 12.2767C30.7854 12.1094 30.6903 11.9778 30.5697 11.8822C30.4537 11.7806 30.3217 11.7088 30.1732 11.667C30.0248 11.6252 29.8765 11.6042 29.728 11.6042Z" fill="#F2EBBF"/>
<path d="M35.1383 16.0468C35.0634 15.763 34.8258 15.5677 34.5556 15.5677H33.6007C33.3288 15.5677 33.0901 15.7657 33.0167 16.0519L32.7516 17.0883C32.7184 17.2177 32.6105 17.3071 32.4876 17.3071C32.3058 17.3071 32.1744 17.1171 32.224 16.9259L33.6598 11.3894C33.7148 11.1771 33.8922 11.0305 34.094 11.0305C34.2955 11.0305 34.4727 11.1766 34.528 11.3884L35.97 16.9013C36.0231 17.1046 35.8835 17.3071 35.6899 17.3071C35.5603 17.3071 35.4461 17.2133 35.4102 17.077L35.1383 16.0468ZM33.5219 14.1126C33.421 14.5206 33.702 14.9221 34.0886 14.9221C34.4741 14.9221 34.7549 14.5228 34.656 14.1156L34.1461 12.0162C34.1398 11.9902 34.1182 11.972 34.0936 11.972C34.0689 11.972 34.0475 11.99 34.041 12.016L33.5219 14.1126Z" fill="#F2EBBF"/>
<path d="M37.1427 20.2873C37.0009 20.4326 36.8601 20.5766 36.7207 20.7192L36.7052 20.7349L36.6974 20.7429C36.1546 21.298 35.6416 21.8225 35.1656 22.3285C31.15 26.5992 26.6784 30.9859 26.6338 31.0298C26.3753 31.283 26.0472 31.4098 25.7188 31.4098C25.3915 31.4098 25.0641 31.2838 24.806 31.0319L24.8023 31.0282C24.6453 30.8746 20.4592 26.7816 16.2721 22.3285C15.7939 21.82 15.2784 21.2929 14.7327 20.7349C14.5883 20.5874 14.4423 20.4381 14.2952 20.2874L21.0147 30.2855L21.0203 30.2938L21.0279 30.3055L21.035 30.3167L21.0417 30.3277C21.6004 31.2405 22.1153 32.2115 22.5721 33.2142C22.5935 33.261 22.6124 33.3095 22.6286 33.3596L25.4098 41.954C25.4876 42.1953 25.5532 42.4417 25.6047 42.6858C25.679 43.0375 25.7168 43.3976 25.719 43.7569C25.7212 43.3976 25.7589 43.0375 25.8331 42.6857C25.8847 42.4417 25.9503 42.1953 26.0281 41.954L28.8092 33.3596C28.8255 33.3095 28.8444 33.261 28.8657 33.2142C29.3227 32.2115 29.8374 31.2405 30.3961 30.3277C30.405 30.3133 30.414 30.2992 30.4232 30.2855L37.1427 20.2873Z" fill="#8CBEB2"/>
<path d="M47.5577 18.6188C46.8691 21.4823 45.7426 24.1361 44.2458 26.4208L36.3872 38.4166C35.8953 39.1045 35.4904 39.8893 35.1878 40.7419L33.5902 45.2413C33.0535 46.7527 31.7352 47.0317 30.4873 46.7459L28.4785 46.2858C27.17 45.9863 26.3297 44.2931 26.6809 42.6291C26.7204 42.4416 26.7707 42.2523 26.8319 42.0626L29.5195 33.7573C29.9421 32.83 30.4132 31.9415 30.9295 31.0982L38.9857 19.1113C39.7555 17.7803 41.2103 17.5118 42.2351 18.5114C42.4178 18.6896 42.5743 18.8961 42.704 19.1227L45.9956 4.89307C46.3645 3.29891 47.6583 2.39475 48.886 2.87365C50.1135 3.35256 50.8097 5.03301 50.441 6.62719L47.5577 18.6188Z" fill="#F2EBBF"/>
<path d="M49.1422 1.76771C47.448 1.1068 45.6536 2.35917 45.1444 4.56068L42.2297 17.1617C40.8885 16.326 39.234 16.7962 38.2963 18.3812L30.2599 30.3388C30.2509 30.3521 30.2422 30.3657 30.2337 30.3796C29.6938 31.2618 29.1962 32.2003 28.7546 33.1693C28.734 33.2147 28.7157 33.2615 28.7001 33.31L26.0119 41.6165C25.9367 41.8498 25.8734 42.0881 25.8236 42.3238C25.5916 43.4229 25.7288 44.6074 26.1999 45.574C26.6752 46.5489 27.4494 47.2229 28.3243 47.4232L30.3332 47.8832C32.2431 48.3206 33.7627 47.5138 34.3979 45.7248L35.9953 41.2255C36.2593 40.4824 36.6104 39.8018 37.0391 39.2025C37.0478 39.1902 37.0563 39.1778 37.0648 39.165L44.9234 27.1691C46.5065 24.7528 47.6785 21.9918 48.4067 18.9632L51.2901 6.97143C51.7992 4.76989 50.8373 2.42883 49.1422 1.76771ZM49.591 6.2897L46.7092 18.2746C46.0526 21.005 44.996 23.494 43.5689 25.6726L35.7223 37.6499C35.1719 38.4237 34.7204 39.3011 34.3805 40.2585L32.7831 44.7578C32.3998 45.8371 31.2771 45.7544 30.642 45.6088L28.6331 45.1488C28.2444 45.0598 27.9138 44.7721 27.7027 44.3388C27.4955 43.9139 27.4373 43.4152 27.5388 42.9344C27.5685 42.7939 27.6067 42.6507 27.6521 42.5101L30.3158 34.2786C30.7048 33.4315 31.1411 32.6106 31.6133 31.8373L39.6559 19.8707C39.6701 19.8493 39.6839 19.8273 39.697 19.8048C40.1709 18.9853 41.0695 18.8189 41.7008 19.4342C42.2782 20.0359 42.4101 21.113 41.9958 21.9156C41.9865 21.9335 41.977 21.9513 41.9672 21.969L38.762 26.742C38.4392 27.2228 38.4775 27.9522 38.8476 28.3715C38.9741 28.5145 39.1228 28.603 39.2767 28.6382C39.5737 28.7063 39.8896 28.5766 40.102 28.2601L43.3311 23.4516C43.3452 23.4306 43.3587 23.409 43.3715 23.387C43.4067 23.3263 43.4404 23.2648 43.4727 23.2022C44.1413 21.9071 44.1773 20.2934 43.6642 18.9871L46.8475 5.22549C47.0745 4.24365 47.8741 3.68466 48.6304 3.97978C49.3852 4.27386 49.8154 5.30933 49.591 6.2897Z" fill="#5C4B51"/>
<path d="M3.86852 18.6188C4.55704 21.4824 5.6835 24.1361 7.18033 26.421L15.0389 38.4166C15.531 39.1046 15.9357 39.8893 16.2383 40.7419L17.8359 45.2413C18.3727 46.7527 19.6909 47.0318 20.9388 46.7459L22.9477 46.2859C24.2562 45.9863 25.0965 44.2933 24.7452 42.6291C24.7057 42.4417 24.6554 42.2524 24.5942 42.0626L21.9066 33.7574C21.484 32.8302 21.013 31.9415 20.4966 31.0983L12.4404 19.1113C11.6706 17.7803 10.2158 17.5118 9.19101 18.5114C9.00831 18.6896 8.85187 18.8962 8.72209 19.1227L5.43056 4.89309C5.06165 3.29893 3.76779 2.39476 2.54021 2.87365C1.31262 3.35256 0.61646 5.03303 0.985187 6.6272L3.86852 18.6188Z" fill="#F2EBBF"/>
<path d="M2.28407 1.76771C3.97835 1.10679 5.77273 2.35917 6.28199 4.56068L9.19675 17.1619C10.5379 16.3261 12.1923 16.7962 13.13 18.3812L21.1666 30.3389C21.1754 30.3522 21.1841 30.3657 21.1926 30.3796C21.7326 31.2619 22.2302 32.2003 22.6717 33.1695C22.6923 33.2147 22.7106 33.2616 22.7264 33.31L25.4144 41.6167C25.4896 41.8499 25.5529 42.0881 25.6028 42.3238C25.8347 43.4229 25.6976 44.6075 25.2265 45.574C24.7513 46.5489 23.977 47.2229 23.1021 47.4232L21.0932 47.8832C19.1833 48.3206 17.6637 47.5138 17.0285 45.7248L15.431 41.2255C15.1671 40.4824 14.816 39.8018 14.3873 39.2025C14.3785 39.1903 14.3699 39.1778 14.3616 39.165L6.5029 27.1692C4.91988 24.7529 3.74785 21.992 3.01968 18.9632L0.136248 6.97143C-0.372851 4.76989 0.588976 2.42883 2.28407 1.76771ZM1.83532 6.2897L4.71712 18.2746C5.37371 21.005 6.43033 23.4942 7.85741 25.6727L15.704 37.6499C16.2546 38.4237 16.7059 39.3011 17.0458 40.2585L18.6434 44.7578C19.0267 45.8371 20.1494 45.7544 20.7844 45.6089L22.7932 45.1488C23.1821 45.0598 23.5125 44.7722 23.7237 44.3388C23.9309 43.9139 23.9891 43.4152 23.8876 42.9344C23.858 42.7939 23.8198 42.6507 23.7744 42.5101L21.1105 34.2786C20.7215 33.4316 20.2852 32.6106 19.813 31.8374L11.7705 19.8707C11.7562 19.8493 11.7424 19.8275 11.7294 19.8048C11.2555 18.9855 10.3568 18.8191 9.72552 19.4342C9.1482 20.0359 9.01617 21.113 9.43061 21.9157C9.43987 21.9335 9.44933 21.9513 9.45916 21.969L12.6644 26.7421C12.9872 27.2228 12.9488 27.9522 12.5788 28.3715C12.4523 28.5147 12.3035 28.603 12.1496 28.6382C11.8527 28.7063 11.5367 28.5766 11.3243 28.2602L8.09514 23.4516C8.0812 23.4306 8.06761 23.4092 8.05475 23.387C8.01963 23.3264 7.98599 23.2648 7.95364 23.2022C7.28503 21.9072 7.24902 20.2934 7.76211 18.9872L4.57888 5.22549C4.35185 4.24365 3.55223 3.68466 2.79592 3.97977C2.04114 4.27386 1.61094 5.30933 1.83532 6.2897Z" fill="#5C4B51"/>
<path d="M73.6666 23.7983C72.0314 23.7983 70.6567 24.6923 70.2584 25.9045C69.8601 24.6923 68.4854 23.7983 66.8502 23.7983C64.9034 23.7983 63.3253 25.0652 63.3253 26.6279C63.3253 28.1906 65.4737 29.5892 66.8502 30.6942C68.5659 32.0716 70.2584 33.3177 70.2584 33.3177C70.2584 33.3177 72.0443 31.9966 73.6666 30.6942C75.0432 29.5892 77.1914 28.1906 77.1914 26.6279C77.1914 25.0652 75.6133 23.7983 73.6666 23.7983Z" fill="#F06060"/>
<path d="M79.9843 24.3627C79.9843 24.051 80.2355 23.7983 80.5451 23.7983C80.8549 23.7983 81.1061 24.051 81.1061 24.3627V31.2857C81.1061 31.8522 81.5622 32.3113 82.1253 32.3113H83.9113C84.4743 32.3113 84.9305 31.8522 84.9305 31.2857V30.4483C84.9305 30.1704 85.1543 29.9451 85.4305 29.9451C85.7067 29.9451 85.9305 30.1704 85.9305 30.4483V32.2921C85.9305 32.8585 85.4743 33.3177 84.9113 33.3177H81.0035C80.4407 33.3177 79.9843 32.8585 79.9843 32.2921V24.3627Z" fill="#5C4B51"/>
<path d="M92.5294 24.3354C92.5294 24.0388 92.7716 23.7983 93.07 23.7983C93.3686 23.7983 93.6106 24.0388 93.6106 24.3354V30.0685C93.6106 30.6324 93.5341 31.1202 93.3808 31.532C93.2367 31.9437 93.0296 32.2838 92.7593 32.5524C92.489 32.812 92.1601 33.0044 91.7728 33.1297C91.3853 33.255 90.9574 33.3177 90.4888 33.3177C89.3717 33.3177 88.5292 33.067 87.9618 32.5658C87.403 32.0646 87.1238 31.3037 87.1238 30.2833V24.3555C87.1238 24.0478 87.3749 23.7983 87.6847 23.7983C87.9944 23.7983 88.2455 24.0478 88.2455 24.3555V29.7597C88.2455 30.2341 88.2906 30.6369 88.3806 30.9681C88.4797 31.2903 88.6193 31.5543 88.7995 31.7602C88.9887 31.9571 89.2229 32.1004 89.5024 32.1898C89.7906 32.2794 90.1239 32.3241 90.5024 32.3241C91.2322 32.3241 91.7501 32.1272 92.0565 31.7334C92.3718 31.3306 92.5294 30.6727 92.5294 29.7597V24.3354Z" fill="#5C4B51"/>
<path d="M95.9658 27.3613L95.245 26.0047C95.2395 25.9943 95.2287 25.9878 95.2169 25.9878C95.1981 25.9878 95.1834 26.0041 95.1853 26.0229L95.3172 27.3613V32.7873C95.3172 33.0802 95.0811 33.3177 94.79 33.3177C94.4989 33.3177 94.2629 33.0802 94.2629 32.7873V24.2739C94.2629 24.0113 94.4745 23.7983 94.7356 23.7983C94.8958 23.7983 95.0452 23.8801 95.1325 24.0156L98.8036 29.7275L99.4953 31.0123C99.5022 31.0251 99.5154 31.033 99.5299 31.033C99.5534 31.033 99.5717 31.0124 99.5691 30.9889L99.4254 29.7275V24.3287C99.4254 24.0358 99.6614 23.7983 99.9525 23.7983C100.244 23.7983 100.479 24.0358 100.479 24.3287V32.8432C100.479 33.1052 100.268 33.3177 100.008 33.3177C99.8471 33.3177 99.6973 33.2352 99.6106 33.0988L95.9658 27.3613Z" fill="#5C4B51"/>
<path d="M101.402 24.8239C101.402 24.2575 101.859 23.7983 102.422 23.7983H107.411C107.974 23.7983 108.43 24.2575 108.43 24.8239V25.7838C108.43 26.0617 108.206 26.287 107.93 26.287C107.654 26.287 107.43 26.0617 107.43 25.7838V25.5458C107.43 25.1365 107.1 24.8047 106.693 24.8047H106.45C105.909 24.8047 105.47 25.2461 105.47 25.7906V31.5634C105.47 31.9765 105.803 32.3113 106.214 32.3113H106.457C106.733 32.3113 106.957 32.5366 106.957 32.8145C106.957 33.0924 106.733 33.3177 106.457 33.3177H103.362C103.086 33.3177 102.862 33.0924 102.862 32.8145C102.862 32.5366 103.086 32.3113 103.362 32.3113H103.605C104.016 32.3113 104.348 31.9765 104.348 31.5634V25.7838C104.348 25.243 103.913 24.8047 103.376 24.8047H103.139C102.732 24.8047 102.402 25.1365 102.402 25.5458V25.7838C102.402 26.0617 102.179 26.287 101.902 26.287C101.626 26.287 101.402 26.0617 101.402 25.7838V24.8239Z" fill="#5C4B51"/>
<path d="M110.922 24.8239C110.922 24.2575 111.378 23.7983 111.941 23.7983H115.976C116.252 23.7983 116.476 24.0236 116.476 24.3015C116.476 24.5794 116.252 24.8047 115.976 24.8047H113.063C112.5 24.8047 112.044 25.2638 112.044 25.8303V26.8933C112.044 27.4597 112.5 27.9189 113.063 27.9189H115.638C115.914 27.9189 116.138 28.1441 116.138 28.422C116.138 28.6999 115.914 28.9252 115.638 28.9252H113.063C112.5 28.9252 112.044 29.3843 112.044 29.9508V31.2857C112.044 31.8522 112.5 32.3113 113.063 32.3113H116.044C116.32 32.3113 116.544 32.5366 116.544 32.8145C116.544 33.0924 116.32 33.3177 116.044 33.3177H111.941C111.378 33.3177 110.922 32.8585 110.922 32.2921V24.8239Z" fill="#5C4B51"/>
<path d="M118.061 24.8239C118.061 24.2575 118.518 23.7983 119.081 23.7983H123.116C123.392 23.7983 123.616 24.0236 123.616 24.3015C123.616 24.5794 123.392 24.8047 123.116 24.8047H120.202C119.639 24.8047 119.183 25.2638 119.183 25.8303V26.8933C119.183 27.4597 119.639 27.9189 120.202 27.9189H122.778C123.054 27.9189 123.278 28.1441 123.278 28.422C123.278 28.6999 123.054 28.9252 122.778 28.9252H120.202C119.639 28.9252 119.183 29.3843 119.183 29.9508V31.2857C119.183 31.8522 119.639 32.3113 120.202 32.3113H123.183C123.459 32.3113 123.683 32.5366 123.683 32.8145C123.683 33.0924 123.459 33.3177 123.183 33.3177H119.081C118.518 33.3177 118.061 32.8585 118.061 32.2921V24.8239Z" fill="#5C4B51"/>
<path d="M125.201 24.8443C125.201 24.3551 125.552 23.9334 126.041 23.8829C126.149 23.8718 126.261 23.8615 126.377 23.8521C126.827 23.8163 127.237 23.7983 127.606 23.7983C128.021 23.7983 128.413 23.8432 128.782 23.9328C129.16 24.0224 129.489 24.1703 129.769 24.3765C130.057 24.5827 130.287 24.8516 130.458 25.1832C130.629 25.5149 130.715 25.9182 130.715 26.3933C130.715 26.7608 130.652 27.088 130.525 27.3748C130.408 27.6527 130.26 27.8947 130.079 28.1009C129.908 28.2981 129.728 28.4594 129.539 28.5849C129.293 28.7481 129.18 29.0814 129.324 29.3383L131.08 32.4749C131.292 32.8527 131.017 33.3177 130.583 33.3177C130.373 33.3177 130.18 33.2027 130.081 33.0185L128.3 29.7117C128.123 29.3822 127.777 29.1765 127.402 29.1765H127.342C126.779 29.1765 126.322 29.6305 126.322 30.1905V32.7597C126.322 33.0679 126.071 33.3177 125.762 33.3177C125.452 33.3177 125.201 33.0679 125.201 32.7597V24.8443ZM127.633 24.7664C127.516 24.7664 127.395 24.7664 127.268 24.7664C127.142 24.7664 127.021 24.7709 126.904 24.7799C126.787 24.7888 126.674 24.7978 126.566 24.8067C126.42 24.8199 126.322 24.9473 126.322 25.0928V27.302C126.322 27.862 126.779 28.316 127.342 28.316H127.377C127.998 28.316 128.512 28.1636 128.917 27.8588C129.323 27.5541 129.525 27.079 129.525 26.4336C129.525 25.9496 129.359 25.5507 129.025 25.237C128.692 24.9233 128.228 24.7664 127.633 24.7664Z" fill="#5C4B51"/>
<path d="M133.345 31.3109C133.345 31.6478 133.533 31.9636 133.857 32.0838C133.983 32.1307 134.114 32.1738 134.25 32.2132C134.592 32.3009 134.935 32.3447 135.277 32.3447C135.575 32.3447 135.854 32.3184 136.115 32.2658C136.377 32.2044 136.602 32.1124 136.791 31.9897C136.989 31.8582 137.142 31.6961 137.25 31.5032C137.367 31.3104 137.426 31.0825 137.426 30.8195C137.426 30.4601 137.3 30.1665 137.048 29.9386C136.804 29.7107 136.498 29.5091 136.129 29.3337C135.759 29.1584 135.358 28.9875 134.926 28.821C134.493 28.6544 134.092 28.4572 133.723 28.2293C133.354 28.0014 133.043 27.7253 132.791 27.401C132.547 27.0679 132.426 26.6471 132.426 26.1387C132.426 25.7793 132.498 25.455 132.642 25.1657C132.795 24.8765 133.007 24.6311 133.277 24.4294C133.547 24.2278 133.872 24.0745 134.25 23.9693C134.638 23.8553 135.066 23.7983 135.534 23.7983C136.075 23.7983 136.566 23.8378 137.007 23.9167C137.445 23.9862 137.794 24.0817 138.055 24.203L138.068 24.2029L138.073 24.2001C138.08 24.1967 138.088 24.2016 138.088 24.209V24.2136L138.094 24.2191L138.099 24.2263L138.09 24.2544L138.088 24.2629V25.8758C138.088 26.1444 137.864 26.3623 137.588 26.3623C137.312 26.3623 137.088 26.1444 137.088 25.8758V25.5756C137.088 25.2118 136.832 24.8926 136.462 24.8399C136.424 24.8344 136.384 24.829 136.345 24.8239C136.075 24.7888 135.786 24.7713 135.48 24.7713C135.183 24.7713 134.912 24.8064 134.669 24.8765C134.435 24.9466 134.232 25.043 134.061 25.1657C133.899 25.2797 133.773 25.4156 133.683 25.5734C133.592 25.7311 133.547 25.8977 133.547 26.073C133.547 26.4148 133.669 26.6997 133.912 26.9276C134.165 27.1555 134.475 27.3615 134.845 27.5456C135.214 27.7209 135.615 27.8962 136.047 28.0715C136.48 28.2468 136.881 28.4528 137.25 28.6895C137.62 28.9174 137.926 29.1935 138.169 29.5178C138.422 29.8421 138.548 30.2454 138.548 30.7275C138.548 31.1219 138.471 31.4769 138.318 31.7925C138.174 32.108 137.962 32.3798 137.683 32.6077C137.412 32.8356 137.075 33.0109 136.669 33.1336C136.273 33.2563 135.822 33.3177 135.318 33.3177C134.975 33.3177 134.651 33.2914 134.345 33.2388C134.038 33.1862 133.755 33.1204 133.493 33.0416C133.241 32.9627 133.011 32.8794 132.804 32.7917C132.623 32.7117 132.476 32.6427 132.363 32.5846C132.344 32.5752 132.336 32.5543 132.342 32.5352L132.345 32.5221V30.8852C132.345 30.6166 132.569 30.3988 132.845 30.3988C133.121 30.3988 133.345 30.6166 133.345 30.8852V31.3109Z" fill="#5C4B51"/>
<path d="M65.4613 19.2852C65.5419 19.2037 65.6232 19.1216 65.7051 19.0387L61.5008 25.2159C61.4951 25.2243 61.4894 25.2331 61.4839 25.2419C61.1343 25.8059 60.8123 26.4058 60.5264 27.0253C60.513 27.0542 60.5012 27.0842 60.491 27.1152L58.7509 32.4251C58.7022 32.5742 58.6611 32.7264 58.6289 32.8771C58.5973 33.0249 58.5763 33.1751 58.5656 33.3259V25.9105C58.7684 25.9084 58.9703 25.8301 59.1299 25.6757L59.1323 25.6733C59.2303 25.5783 61.9881 22.9041 64.4681 20.2998C64.766 19.9872 65.0869 19.6631 65.4265 19.3202L65.4314 19.3152L65.4411 19.3055L65.4613 19.2852Z" fill="#8CBEB2"/>
<path d="M51.67 19.2852C51.5894 19.2037 51.508 19.1216 51.4261 19.0387L55.6305 25.2159C55.6362 25.2243 55.6418 25.2331 55.6474 25.2419C55.9969 25.8059 56.319 26.4058 56.6049 27.0253C56.6183 27.0542 56.6301 27.0842 56.6403 27.1152L58.3804 32.4251C58.4291 32.5742 58.4701 32.7264 58.5024 32.8771C58.534 33.0249 58.555 33.1751 58.5656 33.3259V25.9105C58.3629 25.9084 58.161 25.8301 58.0014 25.6757L57.9989 25.6733C57.901 25.5783 55.1431 22.9041 52.6632 20.2998C52.3653 19.9872 52.0444 19.6631 51.7047 19.3202L51.6999 19.3152L51.6902 19.3055L51.67 19.2852Z" fill="#8CBEB2"/>
</svg>
