<?xml version="1.0" encoding="iso-8859-1"?>
<!-- Uploaded to: SVG Repo, www.svgrepo.com, Generator: SVG Repo Mixer Tools -->
<svg height="800px" width="800px" version="1.1" id="Layer_1" xmlns="http://www.w3.org/2000/svg" xmlns:xlink="http://www.w3.org/1999/xlink" 
	 viewBox="0 0 502 502" xml:space="preserve">
<g>
	<g>
		<path style="fill:#8A501F;" d="M24.084,190.511c3.32,25.766,11.805,50.597,24.947,73.006l68.998,117.652
			c4.414,6.828,7.718,14.312,9.788,22.174l10.927,41.492c3.672,13.938,17.787,18.892,32.103,18.892h22.962
			c14.528,0,26.411-12.137,25.47-26.635c-0.13-2.007-0.43-4.068-0.904-6.169l-17.277-76.079
			c-3.286-8.733-7.167-17.231-11.617-25.432l-71.2-117.963c-6.524-12.854-22.233-17.985-35.088-11.461
			c-2.291,1.163-4.335,2.619-6.113,4.297L62.024,76.502c-1.688-14.316-14.659-24.554-28.975-22.867
			C18.733,55.321,8.495,68.294,10.182,82.61L24.084,190.511z"/>
		<path style="fill:#8A501F;" d="M477.916,190.511c-3.32,25.766-11.805,50.597-24.947,73.006l-68.998,117.652
			c-4.414,6.828-7.718,14.312-9.788,22.174l-10.927,41.492c-3.672,13.938-17.852,18.892-32.103,18.892h-22.941
			c-14.942,0-26.795-12.799-25.408-27.677c0.156-1.676,0.429-3.388,0.821-5.126l17.277-76.079
			c3.286-8.733,7.167-17.231,11.617-25.432l71.2-117.963c6.524-12.854,22.233-17.985,35.087-11.461
			c2.291,1.163,4.335,2.619,6.113,4.297l15.056-127.784c1.688-14.316,14.659-24.554,28.975-22.867s24.554,14.659,22.867,28.975
			L477.916,190.511z"/>
	</g>
	<g>
		<path style="fill:#FF2E3D;" d="M313.889,38.272c-30.173,0-55.54,20.549-62.889,48.414c-7.349-27.865-32.715-48.414-62.889-48.414
			c-35.922,0-65.042,29.12-65.042,65.042s39.642,68.071,65.042,93.472C219.771,228.446,251,257.09,251,257.09
			s32.952-30.367,62.889-60.304c25.401-25.401,65.042-57.55,65.042-93.472S349.811,38.272,313.889,38.272z"/>
		<g>
			<path d="M228.127,428.71l-17.277-76.079c-0.101-0.444-0.232-0.88-0.393-1.306c-3.433-9.126-7.532-18.103-12.186-26.681
				c-0.073-0.135-0.149-0.268-0.229-0.399l-71.025-117.674c-8.001-15.351-25.616-22.588-41.729-18.081L71.956,75.331
				c-2.33-19.77-20.314-33.962-40.077-31.627C12.11,46.032-2.078,64.011,0.25,83.78c0.005,0.036,0.009,0.072,0.014,0.108
				l13.902,107.901c3.512,27.253,12.34,53.088,26.239,76.787l68.998,117.652c0.073,0.125,0.149,0.249,0.229,0.371
				c3.846,5.949,6.711,12.44,8.517,19.292l10.927,41.493c4.346,16.497,19.962,26.345,41.772,26.345h22.962
				c9.842,0,19.345-4.118,26.074-11.298c6.671-7.117,10-16.345,9.375-25.983C229.095,433.918,228.715,431.319,228.127,428.71z
				 M205.291,448.754c-2.963,3.162-7.147,4.975-11.481,4.975h-22.962c-7.252,0-19.811-1.486-22.433-11.439l-10.927-41.493
				c-2.325-8.827-6.006-17.192-10.939-24.867L57.657,258.458c-12.53-21.365-20.489-44.656-23.655-69.225L20.108,81.393
				c-1.011-8.799,5.311-16.79,14.112-17.827c8.809-1.034,16.834,5.289,17.873,14.106l14.561,123.581
				c-7.647,10.139-9.675,23.973-4.216,36.323c0.263,0.595,0.542,1.186,0.841,1.772c0.108,0.214,0.226,0.424,0.35,0.63l28.532,47.315
				c1.878,3.114,5.184,4.837,8.573,4.837c1.758,0,3.539-0.464,5.154-1.438c4.729-2.852,6.251-8.998,3.399-13.728L80.966,230
				c-0.082-0.169-0.16-0.339-0.235-0.509c-3.384-7.656-0.302-16.585,6.998-20.588c7.915-4.012,17.619-0.841,21.636,7.073
				c0.11,0.218,0.229,0.432,0.355,0.642l71.08,117.764c4.066,7.518,7.664,15.37,10.699,23.354l17.121,75.389
				c0.354,1.575,0.584,3.127,0.68,4.617C209.564,441.803,208.14,445.714,205.291,448.754z"/>
			<path d="M121.969,297.997c-2.853-4.73-8.998-6.252-13.728-3.399c-4.729,2.852-6.251,8.998-3.399,13.728l6.341,10.515
				c1.878,3.114,5.184,4.837,8.573,4.837c1.758,0,3.539-0.464,5.154-1.438c4.729-2.852,6.251-8.998,3.399-13.728L121.969,297.997z"
				/>
			<path d="M470.122,43.704c-19.758-2.328-37.748,11.857-40.078,31.627l-13.333,113.16c-16.111-4.509-33.727,2.731-41.729,18.081
				l-71.025,117.674c-0.079,0.131-0.155,0.264-0.229,0.399c-4.653,8.578-8.753,17.554-12.186,26.681
				c-0.16,0.426-0.292,0.862-0.393,1.306l-17.28,76.091c-0.482,2.137-0.826,4.291-1.023,6.4c-0.916,9.826,2.384,19.661,9.056,26.984
				c6.729,7.386,16.318,11.622,26.309,11.622h22.941c21.811,0,37.427-9.849,41.772-26.346l10.927-41.491
				c1.806-6.853,4.671-13.343,8.517-19.292c0.079-0.122,0.155-0.245,0.229-0.371l68.998-117.652
				c13.899-23.699,22.728-49.534,26.239-76.787l13.902-107.901c0.005-0.036,0.009-0.072,0.014-0.108
				C504.078,64.011,489.89,46.032,470.122,43.704z M481.893,81.393l-13.895,107.84c-3.166,24.569-11.125,47.86-23.655,69.226
				L375.451,375.93c-4.934,7.675-8.614,16.04-10.939,24.868l-10.927,41.491c-2.622,9.954-15.181,11.44-22.433,11.44h-22.941
				c-4.44,0-8.533-1.808-11.524-5.092c-2.933-3.219-4.327-7.358-3.926-11.657c0.117-1.256,0.325-2.552,0.616-3.84l17.124-75.403
				c3.035-7.984,6.633-15.837,10.699-23.354l71.08-117.764c0.126-0.209,0.245-0.423,0.355-0.642
				c4.017-7.913,13.72-11.087,21.637-7.073c7.299,4.003,10.381,12.932,6.998,20.586c-0.076,0.171-0.154,0.341-0.236,0.511
				l-28.322,46.967c-2.852,4.729-1.33,10.875,3.399,13.728c1.616,0.974,3.396,1.438,5.154,1.438c3.39,0,6.695-1.724,8.573-4.837
				l28.532-47.315c0.124-0.206,0.241-0.416,0.35-0.63c0.299-0.586,0.578-1.177,0.842-1.774c5.458-12.35,3.43-26.183-4.217-36.322
				l14.561-123.581c1.038-8.817,9.054-15.146,17.874-14.106C476.582,64.603,482.903,72.594,481.893,81.393z"/>
			<path d="M393.759,294.597c-4.73-2.853-10.876-1.329-13.728,3.399l-6.341,10.515c-2.852,4.729-1.33,10.875,3.399,13.728
				c1.615,0.974,3.396,1.438,5.154,1.438c3.39,0,6.695-1.724,8.573-4.837l6.341-10.515
				C400.01,303.595,398.488,297.449,393.759,294.597z"/>
			<path d="M332.36,192.761c25.204-24.225,56.57-54.374,56.57-89.447c0-41.378-33.664-75.042-75.042-75.042
				c-25.874,0-49.317,13.269-62.889,34.074c-13.571-20.805-37.015-34.074-62.889-34.074c-41.378,0-75.042,33.664-75.042,75.042
				c0,35.073,31.366,65.222,56.57,89.447c4.042,3.885,7.859,7.555,11.4,11.096c31.449,31.448,62.887,60.314,63.2,60.602
				c1.912,1.754,4.336,2.631,6.76,2.631c2.432,0,4.862-0.882,6.776-2.646c0.331-0.305,33.446-30.85,63.184-60.587
				C324.501,200.316,328.318,196.647,332.36,192.761z M306.817,189.715c-21.429,21.429-44.648,43.3-55.828,53.735
				c-10.887-10.14-33.346-31.274-55.807-53.734c-3.682-3.682-7.568-7.418-11.684-11.374c-22.468-21.595-50.43-48.471-50.43-75.027
				c0-30.351,24.691-55.042,55.042-55.042c24.974,0,46.858,16.845,53.22,40.964c1.157,4.39,5.128,7.45,9.669,7.45
				s8.512-3.06,9.669-7.45c6.361-24.119,28.246-40.964,53.22-40.964c30.351,0,55.042,24.692,55.042,55.042
				c0,26.556-27.962,53.432-50.43,75.027C314.386,182.297,310.499,186.034,306.817,189.715z"/>
			<path d="M338.436,126.79c-3.878-3.934-10.21-3.978-14.142-0.102l-9.298,9.165c-3.934,3.877-3.979,10.208-0.103,14.142
				c1.957,1.985,4.539,2.98,7.122,2.98c2.535,0,5.072-0.958,7.02-2.878l9.298-9.165C342.267,137.055,342.313,130.724,338.436,126.79
				z"/>
			<path d="M282.317,168.066l-30.337,29.903c-3.934,3.877-3.979,10.208-0.103,14.142c1.957,1.985,4.539,2.98,7.122,2.98
				c2.535,0,5.072-0.958,7.02-2.878l30.337-29.903c3.934-3.877,3.979-10.208,0.103-14.142
				C292.581,164.233,286.249,164.188,282.317,168.066z"/>
		</g>
	</g>
</g>
</svg>