<?xml version="1.0" encoding="utf-8"?>
<!-- Generator: Adobe Illustrator 23.0.0, SVG Export Plug-In . SVG Version: 6.00 Build 0)  -->
<svg version="1.1" id="Layer_1" xmlns="http://www.w3.org/2000/svg" xmlns:xlink="http://www.w3.org/1999/xlink" x="0px" y="0px"
	 viewBox="0 0 50 15" style="enable-background:new 0 0 50 15;" xml:space="preserve">
<style type="text/css">
	.st0{fill:#001A70;}
	.st1{fill:#8CDDF8;}
	.st2{fill:#00B3F0;}
	.st3{fill:#59CEF6;}
</style>
<path class="st0" d="M1.17,10.79c0-0.03,0.03-0.06,0.06-0.06h1.26c0.04,0,0.06,0.03,0.06,0.06v0.09c0,0.03-0.03,0.06-0.06,0.06H1.41
	v0.88h0.92c0.03,0,0.06,0.03,0.06,0.06v0.09c0,0.03-0.03,0.06-0.06,0.06H1.41v0.87c0,0.03-0.03,0.06-0.06,0.06H1.23
	c-0.04,0-0.06-0.03-0.06-0.06V10.79z M3.9,10.7c0.64,0,1.15,0.51,1.15,1.15C5.05,12.49,4.54,13,3.9,13c-0.64,0-1.15-0.51-1.15-1.15
	C2.75,11.21,3.26,10.7,3.9,10.7 M3.9,12.78c0.51,0,0.93-0.42,0.93-0.92c0-0.51-0.42-0.93-0.93-0.93c-0.51,0-0.92,0.42-0.92,0.93
	C2.98,12.36,3.39,12.78,3.9,12.78 M5.48,10.79c0-0.03,0.03-0.06,0.06-0.06h0.12c0.04,0,0.06,0.03,0.06,0.06v1.33
	c0,0.36,0.23,0.65,0.6,0.65c0.38,0,0.61-0.28,0.61-0.64v-1.34c0-0.03,0.03-0.06,0.06-0.06h0.12c0.03,0,0.06,0.03,0.06,0.06v1.35
	c0,0.49-0.34,0.86-0.85,0.86c-0.5,0-0.84-0.37-0.84-0.86V10.79z M7.77,10.76c0-0.03,0.03-0.06,0.06-0.06h0.08l1.44,1.79h0.01v-1.7
	c0-0.03,0.03-0.06,0.06-0.06h0.11c0.03,0,0.06,0.03,0.06,0.06v2.15c0,0.03-0.03,0.06-0.06,0.06H9.47l-1.47-1.83h0v1.74
	c0,0.03-0.03,0.06-0.06,0.06H7.83c-0.03,0-0.06-0.03-0.06-0.06V10.76z M10.2,10.79c0-0.03,0.03-0.06,0.06-0.06h0.72
	c0.62,0,1.12,0.5,1.12,1.11c0,0.62-0.5,1.12-1.12,1.12h-0.72c-0.03,0-0.06-0.03-0.06-0.06V10.79z M10.92,12.75
	c0.52,0,0.9-0.37,0.9-0.9c0-0.52-0.38-0.9-0.9-0.9h-0.48v1.8H10.92z M12.17,12.88l0.97-2.15c0.01-0.02,0.03-0.04,0.05-0.04h0.03
	c0.03,0,0.04,0.02,0.05,0.04l0.96,2.15c0.02,0.04-0.01,0.08-0.05,0.08h-0.13c-0.03,0-0.05-0.02-0.05-0.03l-0.24-0.53h-1.13
	l-0.23,0.53c-0.01,0.02-0.03,0.03-0.05,0.03h-0.13C12.18,12.97,12.15,12.93,12.17,12.88 M13.69,12.21c-0.16-0.35-0.31-0.7-0.47-1.05
	H13.2l-0.47,1.05H13.69z M14.73,10.95h-0.56c-0.03,0-0.06-0.03-0.06-0.06v-0.09c0-0.03,0.03-0.06,0.06-0.06h1.35
	c0.04,0,0.06,0.03,0.06,0.06v0.09c0,0.03-0.03,0.06-0.06,0.06h-0.56v1.96c0,0.03-0.03,0.06-0.06,0.06h-0.12
	c-0.03,0-0.06-0.03-0.06-0.06V10.95z M15.91,10.79c0-0.03,0.03-0.06,0.06-0.06h0.13c0.03,0,0.06,0.03,0.06,0.06v2.11
	c0,0.03-0.03,0.06-0.06,0.06h-0.13c-0.03,0-0.06-0.03-0.06-0.06V10.79z M17.76,10.7c0.64,0,1.15,0.51,1.15,1.15
	c0,0.64-0.51,1.15-1.15,1.15c-0.64,0-1.15-0.51-1.15-1.15C16.62,11.21,17.12,10.7,17.76,10.7 M17.76,12.78
	c0.51,0,0.93-0.42,0.93-0.92c0-0.51-0.42-0.93-0.93-0.93c-0.51,0-0.92,0.42-0.92,0.93C16.84,12.36,17.25,12.78,17.76,12.78
	 M19.4,10.76c0-0.03,0.03-0.06,0.06-0.06h0.08l1.44,1.79h0.01v-1.7c0-0.03,0.03-0.06,0.06-0.06h0.11c0.03,0,0.06,0.03,0.06,0.06
	v2.15c0,0.03-0.03,0.06-0.06,0.06H21.1l-1.47-1.83h0v1.74c0,0.03-0.03,0.06-0.06,0.06h-0.11c-0.03,0-0.06-0.03-0.06-0.06V10.76z
	 M2.7,6.59c0.47,0,0.82,0.15,1.14,0.44c0.04,0.04,0.04,0.09,0,0.13l-0.29,0.3c-0.03,0.04-0.08,0.04-0.12,0
	c-0.2-0.17-0.46-0.28-0.72-0.28c-0.6,0-1.05,0.5-1.05,1.09c0,0.59,0.45,1.08,1.05,1.08c0.28,0,0.52-0.11,0.72-0.27
	c0.04-0.03,0.09-0.03,0.12,0l0.29,0.3c0.04,0.03,0.03,0.09,0,0.13C3.52,9.83,3.11,9.98,2.7,9.98C1.76,9.98,1,9.23,1,8.29
	C1,7.35,1.76,6.59,2.7,6.59 M4.44,6.73c0-0.05,0.04-0.09,0.09-0.09h1.34c0.56,0,1.02,0.45,1.02,1.01c0,0.43-0.29,0.78-0.69,0.95
	l0.64,1.19c0.03,0.06,0,0.14-0.08,0.14H6.27c-0.04,0-0.07-0.02-0.07-0.04L5.57,8.64H5.05v1.2c0,0.05-0.04,0.09-0.09,0.09H4.52
	c-0.05,0-0.09-0.04-0.09-0.09V6.73z M5.82,8.14c0.25,0,0.46-0.22,0.46-0.48c0-0.25-0.22-0.46-0.46-0.46H5.05v0.93H5.82z M9,6.59
	c0.94,0,1.69,0.76,1.69,1.7c0,0.94-0.75,1.69-1.69,1.69c-0.94,0-1.69-0.75-1.69-1.69C7.31,7.35,8.06,6.59,9,6.59 M9,9.37
	c0.59,0,1.08-0.48,1.08-1.08C10.08,7.7,9.59,7.2,9,7.2c-0.59,0-1.08,0.49-1.08,1.08C7.92,8.88,8.41,9.37,9,9.37 M11.26,6.73
	c0-0.05,0.04-0.09,0.09-0.09h0.44c0.05,0,0.09,0.04,0.09,0.09v1.24h1.53V6.73c0-0.05,0.04-0.09,0.09-0.09h0.43
	c0.05,0,0.09,0.04,0.09,0.09v3.11c0,0.05-0.04,0.09-0.09,0.09H13.5c-0.05,0-0.09-0.04-0.09-0.09v-1.3h-1.53v1.3
	c0,0.05-0.04,0.09-0.09,0.09h-0.44c-0.05,0-0.09-0.04-0.09-0.09V6.73z M14.75,6.68c0-0.05,0.04-0.08,0.09-0.08h0.12l1.95,2.08h0
	V6.73c0-0.05,0.04-0.09,0.09-0.09h0.43c0.05,0,0.09,0.04,0.09,0.09v3.16c0,0.05-0.04,0.08-0.09,0.08h-0.11l-1.96-2.16h0v2.02
	c0,0.05-0.04,0.09-0.09,0.09h-0.43c-0.05,0-0.09-0.04-0.09-0.09V6.68z M18.19,7.88c-0.03-0.03-0.02-0.08,0.01-0.11
	c0.05-0.03,0.32-0.24,0.32-0.57c0,0-0.07,0.02-0.14,0.02c-0.17,0-0.31-0.14-0.31-0.31c0-0.17,0.14-0.31,0.33-0.31
	c0.17,0,0.39,0.12,0.39,0.5c0,0.46-0.3,0.74-0.42,0.85c-0.04,0.03-0.07,0.03-0.11,0L18.19,7.88z M19.25,9.47l0.17-0.29
	c0.04-0.07,0.12-0.07,0.16-0.03c0.02,0.01,0.4,0.29,0.71,0.29c0.24,0,0.43-0.16,0.43-0.36c0-0.24-0.2-0.4-0.6-0.56
	c-0.44-0.18-0.88-0.46-0.88-1.01c0-0.42,0.31-0.9,1.06-0.9c0.48,0,0.85,0.24,0.94,0.31c0.05,0.03,0.06,0.11,0.03,0.16l-0.18,0.27
	c-0.04,0.06-0.11,0.09-0.16,0.06c-0.04-0.02-0.39-0.26-0.65-0.26c-0.27,0-0.41,0.18-0.41,0.33c0,0.22,0.17,0.37,0.55,0.53
	c0.46,0.18,0.98,0.46,0.98,1.06c0,0.48-0.42,0.93-1.08,0.93c-0.59,0-0.94-0.28-1.03-0.37C19.23,9.57,19.21,9.54,19.25,9.47
	 M22.83,8.01c-0.16-0.2-0.24-0.41-0.24-0.64c0-0.43,0.35-0.79,0.88-0.79c0.34,0,0.6,0.14,0.8,0.34c0.02,0.02,0.02,0.05,0,0.07
	l-0.18,0.15c-0.02,0.02-0.05,0.02-0.07,0C23.86,7,23.68,6.9,23.45,6.9c-0.3,0-0.49,0.22-0.49,0.47c0,0.21,0.12,0.41,0.31,0.62
	C23.62,8.36,24,8.68,24.42,9c0.12-0.2,0.19-0.44,0.2-0.69c0-0.03,0.02-0.05,0.05-0.05h0.25c0.03,0,0.05,0.02,0.05,0.05
	c-0.01,0.33-0.11,0.64-0.28,0.9c0.19,0.14,0.38,0.28,0.59,0.42c0.02,0.02,0.03,0.05,0.01,0.07l-0.15,0.2
	c-0.02,0.02-0.05,0.03-0.07,0.01c-0.2-0.14-0.4-0.28-0.6-0.43c-0.3,0.31-0.71,0.5-1.19,0.5c-0.74,0-1.14-0.47-1.14-0.97
	C22.14,8.56,22.44,8.23,22.83,8.01 M23.02,8.24c-0.3,0.16-0.51,0.42-0.51,0.75c0,0.36,0.27,0.66,0.79,0.66
	c0.35,0,0.67-0.14,0.9-0.37C23.79,8.96,23.38,8.62,23.02,8.24 M27.39,6.59c0.47,0,0.82,0.15,1.14,0.44c0.04,0.04,0.04,0.09,0,0.13
	l-0.29,0.3c-0.03,0.04-0.08,0.04-0.12,0c-0.2-0.17-0.46-0.28-0.72-0.28c-0.6,0-1.05,0.5-1.05,1.09c0,0.59,0.45,1.08,1.05,1.08
	c0.28,0,0.52-0.11,0.72-0.27c0.04-0.03,0.09-0.03,0.12,0l0.29,0.3c0.04,0.03,0.03,0.09,0,0.13c-0.32,0.31-0.72,0.46-1.14,0.46
	c-0.94,0-1.7-0.75-1.7-1.69C25.69,7.35,26.45,6.59,27.39,6.59 M30.47,6.59c0.94,0,1.69,0.76,1.69,1.7c0,0.94-0.75,1.69-1.69,1.69
	c-0.94,0-1.69-0.75-1.69-1.69C28.79,7.35,29.53,6.59,30.47,6.59 M30.47,9.37c0.59,0,1.08-0.48,1.08-1.08c0-0.59-0.49-1.08-1.08-1.08
	c-0.59,0-1.08,0.49-1.08,1.08C29.4,8.88,29.88,9.37,30.47,9.37 M32.7,6.73c0-0.05,0.04-0.09,0.09-0.09h0.43
	c0.05,0,0.09,0.04,0.09,0.09v2.63h1.2c0.05,0,0.09,0.04,0.09,0.09v0.39c0,0.05-0.04,0.09-0.09,0.09h-1.72
	c-0.05,0-0.09-0.04-0.09-0.09V6.73z M35.16,6.73c0-0.05,0.04-0.09,0.09-0.09h0.44c0.05,0,0.09,0.04,0.09,0.09v3.11
	c0,0.05-0.04,0.09-0.09,0.09h-0.44c-0.05,0-0.09-0.04-0.09-0.09V6.73z M37.11,7.2h-0.72c-0.05,0-0.09-0.04-0.09-0.09V6.73
	c0-0.05,0.04-0.09,0.09-0.09h2.05c0.05,0,0.09,0.04,0.09,0.09v0.38c0,0.05-0.04,0.09-0.09,0.09h-0.72v2.63
	c0,0.05-0.04,0.09-0.09,0.09H37.2c-0.05,0-0.09-0.04-0.09-0.09V7.2z M39.06,6.73c0-0.05,0.04-0.09,0.09-0.09h0.44
	c0.05,0,0.09,0.04,0.09,0.09v3.11c0,0.05-0.04,0.09-0.09,0.09h-0.44c-0.05,0-0.09-0.04-0.09-0.09V6.73z M40.39,9.47l0.17-0.29
	c0.04-0.07,0.12-0.07,0.16-0.03c0.02,0.01,0.4,0.29,0.71,0.29c0.24,0,0.43-0.16,0.43-0.36c0-0.24-0.2-0.4-0.6-0.56
	c-0.44-0.18-0.88-0.46-0.88-1.01c0-0.42,0.31-0.9,1.06-0.9c0.48,0,0.85,0.24,0.94,0.31c0.05,0.03,0.06,0.11,0.03,0.16l-0.18,0.27
	c-0.04,0.06-0.11,0.09-0.16,0.06c-0.04-0.02-0.39-0.26-0.65-0.26c-0.27,0-0.41,0.18-0.41,0.33c0,0.22,0.17,0.37,0.55,0.53
	c0.46,0.18,0.98,0.46,0.98,1.06c0,0.48-0.42,0.93-1.08,0.93c-0.59,0-0.94-0.28-1.03-0.37C40.37,9.57,40.35,9.54,40.39,9.47"/>
<path class="st0" d="M43.87,4.33c-0.59,0.38-1.35,0.64-2.24,0.71c-0.02-0.18-0.03-0.43-0.03-0.66c0-0.2,0-0.39,0.02-0.57
	c0.08-0.01,0.22-0.01,0.29-0.01C42.63,3.79,43.3,3.99,43.87,4.33 M47.66,5.67c0.26,0.62,0.65,1.22,1.13,1.73
	c0.2-0.28,0.4-0.72,0.4-0.96C48.66,5.92,48.13,5.72,47.66,5.67 M45.12,2.66c0.02-0.11,0.03-0.23,0.03-0.34
	c0-0.37-0.13-0.73-0.36-1.05c-0.31,0.03-0.63,0.07-1.03,0.16C44.04,1.87,44.54,2.3,45.12,2.66 M47.27,3.5
	c0.14,0.02,0.27,0.03,0.39,0.03c0.25,0,0.6-0.03,0.88-0.24c-0.18-0.29-0.52-0.67-0.7-0.82C47.56,2.66,47.33,2.94,47.27,3.5
	 M45.59,6.38c-0.6,0.51-1.04,1.25-1.26,2.03c0.23,0.08,0.53,0.12,0.87,0.12c0.13,0,0.26-0.01,0.4-0.02
	c0.16-0.26,0.22-0.48,0.22-0.85C45.82,7.22,45.74,6.79,45.59,6.38"/>
<path class="st1" d="M47.66,3.53c0.25,0,0.6-0.03,0.88-0.24c-0.22,0.18-0.31,0.44-0.31,0.79c0,0.72,0.28,1.59,0.97,2.36
	c-0.54-0.53-1.07-0.72-1.53-0.77c-0.27-0.63-0.41-1.28-0.41-1.85c0-0.11,0.01-0.22,0.02-0.32C47.4,3.52,47.54,3.53,47.66,3.53
	 M45.12,2.66c0.69,0.43,1.48,0.74,2.15,0.84c0.06-0.56,0.29-0.85,0.57-1.02c-0.13,0.07-0.29,0.11-0.48,0.11
	c-0.97,0-2.15-0.73-2.56-1.33c0.22,0.32,0.36,0.68,0.36,1.05C45.15,2.44,45.14,2.55,45.12,2.66"/>
<path class="st2" d="M45.59,6.38c-0.31-0.85-0.92-1.58-1.72-2.05c-0.59,0.38-1.35,0.64-2.24,0.71c0.06,0,0.12-0.01,0.17-0.01
	c1.46,0,2.62,1.18,2.62,2.69c0,0.24-0.04,0.46-0.1,0.69C44.55,7.63,44.99,6.89,45.59,6.38"/>
<path class="st3" d="M47.66,5.67c0.26,0.62,0.65,1.22,1.13,1.73c-0.33-0.3-0.65-0.46-1.13-0.46c-0.77,0-1.46,0.62-2.07,1.56
	c0.16-0.26,0.22-0.48,0.22-0.85c0-0.44-0.08-0.87-0.23-1.28c0.51-0.44,1.14-0.72,1.83-0.72C47.5,5.66,47.58,5.67,47.66,5.67
	 M43.87,4.33c0.68-0.44,1.13-1.03,1.25-1.66c-0.58-0.36-1.08-0.8-1.35-1.24c0.1,0.18,0.18,0.38,0.18,0.58c0,0.79-0.83,1.66-2.32,1.8
	c0.08-0.01,0.22-0.01,0.29-0.01C42.63,3.79,43.3,3.99,43.87,4.33"/>
</svg>
